PathFileType	4	(X/Y/Z)	40_2_23_p0_0-250_filt_butterworth.trc
DataRate	CameraRate	NumFrames	NumMarkers	Units	OrigDataRate	OrigDataStartFrame	OrigNumFrames
60.0	60.0	4	27	m	60.0	0	250
Frame#	Time	RHip			RKnee			RAnkle			RBigToe			RSmallToe			RHeel			LHip			LKnee			LAnkle			LBigToe			LSmallToe			LHeel			Neck			Head			Nose			RShoulder			RElbow			RWrist			RThumb			RIndex			RPinky			LShoulder			LElbow			LWrist			LThumb			LIndex			LPinky			
		X1	Y1	Z1	X2	Y2	Z2	X3	Y3	Z3	X4	Y4	Z4	X5	Y5	Z5	X6	Y6	Z6	X7	Y7	Z7	X8	Y8	Z8	X9	Y9	Z9	X10	Y10	Z10	X11	Y11	Z11	X12	Y12	Z12	X13	Y13	Z13	X14	Y14	Z14	X15	Y15	Z15	X16	Y16	Z16	X17	Y17	Z17	X18	Y18	Z18	X19	Y19	Z19	X20	Y20	Z20	X21	Y21	Z21	X22	Y22	Z22	X23	Y23	Z23	X24	Y24	Z24	X25	Y25	Z25	X26	Y26	Z26	X27	Y27	Z27	
0	0.0	0.3283539721743358	0.6991202217787988	0.8777513135029332	0.32534262318059964	0.7913490682799251	1.3002974127170437	0.3113768568069956	0.9576189839466172	1.707581493264384	0.3000202326149762	0.7229715202842458	1.7244884239135814	0.34835556646887356	0.7679743621910968	1.736431378453807	0.286885399461412	1.0225644484644443	1.761041489438817	0.10719617864876428	0.6640762657227282	0.8830168723936781	0.099566777874346	0.7677896365537061	1.2955899842778866	0.08779941410750655	0.8863395184577483	1.710930295357935	0.14196954441273224	0.6736310126385024	1.7081456209259327	0.07970498235042024	0.7252619750231973	1.7233923194925866	0.0810496787160343	0.9565385392233263	1.7566062194874799	0.2317355848251647	0.5591444108112305	0.33082316384945387	0.2587677018366619	0.44565389274562894	0.09830995516653848	0.2551421121689961	0.3968393645907474	0.230319135047025	0.37929683722706187	0.5409242546608589	0.4253423102383641	0.4561841341014358	0.49831639911919484	0.6504618397974252	0.307648205969237	0.39983627722002085	0.7903232099682235	0.21893396130294418	0.4262440620804628	0.8596462306561063	0.21140845570657063	0.44206529021141894	0.8829956366495684	0.22995476627769307	0.4434870625025666	0.8888243830470661	0.08547274791213418	0.5509877147175465	0.40158987388613415	0.03797509926514238	0.4835660087635631	0.6419652549734277	0.2054793642603008	0.3721141934508442	0.7924678685425086	0.2925143799506359	0.40423226491392966	0.8289232867496631	0.29041531378362306	0.41215466044130167	0.8725941588980884	0.2180865258330141	0.40397843648308446	0.8883623849161305
1	0.0166666666666666	0.3281060394426071	0.6994833012997012	0.8776105139029342	0.32507756193024817	0.7917205211116283	1.3054760223426183	0.31131205218253294	0.9576743140795034	1.7076597756910092	0.3026578962590927	0.7250349226811931	1.7250893911924043	0.3486447303948077	0.7686071638602923	1.7365743052251281	0.28845662501699443	1.0269747762309533	1.7663456885572522	0.10896471968914914	0.6557804326103932	0.8796338482388257	0.1010629045012438	0.7572721658976	1.298924606129844	0.08777239483014433	0.886532254104841	1.7110431573235008	0.14259098536643616	0.6831074210432067	1.711036993905247	0.08037772328769174	0.7270249430230968	1.7254168990703416	0.08010953559142825	0.9551244011438578	1.756526811019575	0.23180406074781462	0.5589776286277917	0.33064486905560536	0.2589433541669666	0.4458562511702898	0.10000470790748094	0.25614457040439764	0.40342388513053457	0.22916077233844062	0.3792821266831668	0.5408589907452526	0.4253096907575183	0.4576452945263764	0.5038929058737891	0.6519351271427013	0.3118192626557607	0.4093595655072498	0.7976589028739902	0.22553093042593927	0.4283672531825997	0.8638973581717588	0.2160247485886464	0.43140217393861874	0.8810742632382728	0.230174025061354	0.4435096882784837	0.8889820379765571	0.08542394675186803	0.5509058285168581	0.4016306574453783	0.03726588117696018	0.4779080568091024	0.6437630742531136	0.20286746920627025	0.37229299230778223	0.7934657989787852	0.2964822829819805	0.391696516308465	0.8224625176078577	0.29541664673400836	0.4003387945878372	0.8691145410135255	0.2228430042552133	0.4245874853625836	0.8910508425198358
2	0.0333333333333333	0.3280574734926144	0.7001782007806138	0.8784401671366505	0.32492249677924384	0.7919199854505142	1.3086395317851331	0.3112775542058977	0.9577030444741291	1.708687419540738	0.3041764238429896	0.7262010753895789	1.7255007215195741	0.3497486063041718	0.7685124174096848	1.7360379673113464	0.2893692530782704	1.0322424060194035	1.7710320645797866	0.10853620179927471	0.6508241887044611	0.8773518771648148	0.10203463055458792	0.7508226933952121	1.301704918980581	0.0877553323403331	0.8865787964776222	1.711149531073091	0.14277589742329505	0.6888035651713607	1.712120791846532	0.08083027803232386	0.7279726509204314	1.726058382521501	0.07854803310512813	0.9550064175210111	1.7565725324548822	0.23185929001606398	0.5589340011526808	0.3309322215592396	0.2590422027467886	0.4459608518145893	0.10043038886583047	0.25677567313447414	0.4073693333080869	0.2278869313036619	0.3796760470436094	0.5410717196238861	0.42533667077174353	0.4594232530637735	0.5108212390323845	0.6533702603019946	0.31471638591912093	0.4173446069822292	0.804522343710695	0.2306099188864651	0.4334102878631592	0.8673164247333822	0.21976623819503247	0.427164745626548	0.8812259158192197	0.230893819132463	0.4437826875823951	0.8892353414771208	0.08538052176309616	0.5508518277584439	0.40167826976898235	0.03689573147946435	0.4766436212682062	0.6453784279150943	0.20236773269266467	0.3718835358376751	0.7939495750077147	0.2998794827738145	0.38222719204226335	0.8202321982770977	0.2996442127555738	0.39008688378773493	0.8667962433149584	0.22697345451392642	0.437655994577234	0.8925972915850253
3	0.05	0.3282274419446012	0.7012619401344267	0.8807132543865186	0.32487966325247875	0.7919425955990362	1.3096504023129705	0.3113057877975576	0.9576426649177988	1.7108130604339722	0.30450816794041125	0.7263977850746448	1.725710108104668	0.35161712747549284	0.7677015734395989	1.7348881365972884	0.2895543586619321	1.0374706028972984	1.774860481864239	0.10679487864359068	0.6494822005310865	0.8769749224717195	0.10241220587058578	0.7488019579597971	1.3036556110857975	0.08775079824883648	0.8863736217229237	1.7111816882621764	0.14253672011455049	0.6900249308774388	1.7114174311937402	0.08092263764619373	0.7281015040812842	1.7255750045170157	0.07609150892183199	0.9569245036342183	1.756778340171899	0.23190595356788415	0.5591520516775029	0.33189880160624763	0.2590454859816369	0.4459519664857396	0.09964440462404289	0.25699849140076325	0.40848035998352134	0.22666312281070783	0.3806891043831484	0.54166736998505	0.4253961529323247	0.46112352859837874	0.5175843431040726	0.6544116029918141	0.31632935511357235	0.42400315294867463	0.810277731172969	0.23288851627612062	0.44136562834476445	0.869757881125288	0.22206408548630055	0.42827159842204376	0.8829137686512409	0.23201151371621018	0.44430179380950663	0.8894936112206242	0.08534818957773306	0.5508379122624625	0.40172720348185337	0.036757152884724434	0.479491668085584	0.6469781666198337	0.20386298430054686	0.3719645235970175	0.7937870167355383	0.3017634690924512	0.3782797730917815	0.8223170851081985	0.3022345913627359	0.3839272362063717	0.8659229718882663	0.23011700617804096	0.4430164296014826	0.8930327625797526
